<?xml version="1.0" encoding="UTF-8"?>
<svg id="Layer_1" data-name="Layer 1" xmlns="http://www.w3.org/2000/svg" viewBox="0 0 1277.15 1750.17">
  <defs>
    <style>
      .cls-1 {
        fill: #fff;
        stroke-width: 0px;
      }
    </style>
  </defs>
  <path class="cls-1" d="M332.36,776.23c-18.55,4.18-47.21,29.79-56.72,38.52-71.51,65.75-102.82,161.12-103.26,255.77-.66,140.66,1.43,280.5,1.43,421.11h119.6c-2.19-178.01,1.21-359.75,8.66-531.89,1.65-37.84,14.42-87.36,32.74-120.48,29.56-53.41,94.21-51.99,148.01-52.7h127.45c2.41,0,4.39,1.97,4.39,4.39l-1.15,603.13s-.05,10.04,0,23.64c.17,40.69,33.07,73.7,73.76,73.87,14.09.08,26.18-.02,31.67-.44l46.04,1.48c215.74,0,352.12-10.31,352.12-191.88,0-115.33-63.29-162-143.95-180.04-8.56-1.92-8.94-13.87-.6-16.45,74.03-22.81,117.8-68.06,117.8-156.35,0-188.59-142.31-178.5-348.78-178.5-.44,0-.93.05-1.37.11l-16.95,2.75v-204.69c19.69-3.85,36.28-9.02,49.14-13.14,81.55-26.1,138.03-76.06,170.06-110.39,4.33,2.63,8.56,7.07,12.5,14.15,23.96,42.77,36.47,84.18,34.82,141.1-1.92,67.29-3.95,114.23-11.63,154.15h96.79c-.33-61.64,6.25-201.1-52.26-299.59l.06.05c-11.46-19.25-21.06-30.93-40.36-50.29,26.71-26.32,56.65-62.74,75.18-145.11,19.58-87.09,22.16-187.44,15.79-232.3h-97.01s33.18,223.75-33.62,338.69c-68.28-66.25-127.89-122.79-217.11-143.35-.77-.18-1.58-.31-2.36-.48v-114.41l2.08-80.61h-217c-170,0-373.07,0-373.07,380.26,0,137.85,30.22,344.33,197.11,369.93ZM614.55,510.34c-1.23-.26-2.48-.49-3.67-.77-75.68-18.04-138.09-78.64-153.39-106.88,16.51-38.17,85.88-125.58,154.48-136.33.86-.14,1.72-.2,2.58-.32v244.31ZM728.39,798.46c0-6.91,5.59-12.5,12.5-12.5,132.82,0,261.2-16.51,261.2,162,0,128.87-72.06,155.74-159.31,160.95h-.55c-22.59,0-76.61.6-101.23.88v.05c-6.96.05-12.61-5.54-12.61-12.5v-298.88ZM728.34,1138.96c0-6.91,5.59-12.5,12.5-12.5h10.69c131.94,0,278.15-16.51,278.15,174.33v.11c0,191.88-176.47,175.38-223.75,175.38h-65.09c-6.91,0-12.5-5.59-12.5-12.5v-324.81ZM895.11,403.34c-42.19,52.67-109.26,86.36-171.87,101.39v-224.79c78.15,29.35,142.71,92.01,171.87,123.4ZM483.48,59.11h131.07v158.37c-6.38.91-12.84,1.98-19.41,3.3-100.36,20.07-173.29,127.72-195.56,183.05,13.38,23.31,35.65,56.59,70.19,88.02,59.78,54.4,119.88,70.08,136.44,73.98,2.81.66,5.56,1.18,8.34,1.74v185.92h-155.85c-49.57,0-207.79-8.28-207.79-347.19S371.33,59.11,483.48,59.11Z"/>
  <polygon class="cls-1" points="167.7 1721.9 268.53 1721.9 268.53 1711.2 189.1 1716.02 189.1 1627.23 254.35 1629.64 254.35 1618.94 189.1 1621.35 189.1 1532.56 268.53 1537.37 268.53 1526.68 167.7 1526.68 167.7 1721.9"/>
  <path class="cls-1" d="M298.75,1526.68h-21.39v195.23h21.39v-72.74c73.01-8.29,98.68-28.88,98.68-65.26s-25.67-57.23-98.68-57.23ZM298.75,1643.54v-111.52c58.84,1.07,77.29,18.72,77.29,51.88s-18.45,51.35-77.29,59.64Z"/>
  <rect class="cls-1" x="406.27" y="1526.68" width="21.4" height="195.23"/>
  <path class="cls-1" d="M458.69,1526.68h-21.39v195.23h21.39v-72.74c73.01-8.29,98.68-28.88,98.68-65.26s-25.67-57.23-98.68-57.23ZM458.69,1643.54v-111.52c58.84,1.07,77.29,18.72,77.29,51.88s-18.45,51.35-77.29,59.64Z"/>
  <polygon class="cls-1" points="675.85 1621.61 587.6 1621.61 587.6 1526.68 566.2 1526.68 566.2 1721.9 587.6 1721.9 587.6 1626.96 675.85 1626.96 675.85 1721.9 697.24 1721.9 697.24 1526.68 675.85 1526.68 675.85 1621.61"/>
  <path class="cls-1" d="M765.45,1526.68l-63.38,195.23h10.7l23.27-77.82h67.66l25.14,77.82h21.4l-63.38-195.23h-21.39ZM737.37,1638.73l30.75-103.49,33.7,103.49h-64.45Z"/>
  <polygon class="cls-1" points="983.41 1712.27 876.44 1526.68 855.04 1526.68 855.04 1721.9 865.74 1721.9 860.66 1536.3 967.63 1721.9 989.03 1721.9 989.03 1526.68 978.33 1526.68 983.41 1712.27"/>
  <polygon class="cls-1" points="1131.31 1526.68 1075.68 1637.93 1015.24 1526.68 993.85 1526.68 1057.23 1643.27 1057.23 1721.9 1078.62 1721.9 1078.62 1643.27 1142.01 1526.68 1131.31 1526.68"/>
</svg>