<?xml version="1.0" encoding="UTF-8"?>
<svg id="Layer_1" data-name="Layer 1" xmlns="http://www.w3.org/2000/svg" viewBox="0 0 1223.1 1750.17">
  <defs>
    <style>
      .cls-1 {
        fill: #010101;
        stroke-width: 0px;
      }
    </style>
  </defs>
  <path class="cls-1" d="M287.73,777.48c-18.3,4.12-46.59,29.4-55.97,38.01-70.56,64.88-101.46,158.99-101.9,252.39-.65,138.8,1.41,276.79,1.41,415.54h118.02c-2.16-175.65,1.19-354.99,8.55-524.85,1.62-37.34,14.23-86.2,32.31-118.89,29.17-52.71,92.97-51.3,146.05-52h125.76c2.38,0,4.33,1.95,4.33,4.33l-1.14,595.15s-.05,9.9,0,23.32c.16,40.15,32.63,72.73,72.78,72.89,13.9.08,25.83-.02,31.25-.43l45.43,1.46c212.88,0,347.47-10.17,347.47-189.34,0-113.8-62.45-159.85-142.05-177.66-8.44-1.89-8.82-13.69-.59-16.23,73.05-22.51,116.24-67.16,116.24-154.28,0-186.1-140.43-176.14-344.16-176.14-.43,0-.92.05-1.35.11l-16.72,2.71v-201.98c19.43-3.8,35.8-8.9,48.49-12.96,80.47-25.76,136.21-75.06,167.81-108.93,4.28,2.6,8.44,6.98,12.34,13.96,23.65,42.21,35.99,83.06,34.36,139.24-1.89,66.4-3.9,112.72-11.47,152.11h95.51c-.32-60.82,6.17-198.44-51.57-295.62l.05.05c-11.31-18.99-20.78-30.52-39.83-49.62,26.35-25.97,55.9-61.91,74.19-143.19,19.32-85.93,21.86-184.96,15.58-229.23h-95.73s32.74,220.78-33.17,334.21c-67.37-65.37-126.19-121.16-214.24-141.45-.77-.18-1.55-.33-2.33-.5v-112.87l2.06-79.55h-214.13c-167.75,0-368.14,0-368.14,375.23,0,136.02,29.82,339.78,194.5,365.03ZM566.18,515.1c-1.21-.25-2.45-.48-3.63-.76-74.68-17.8-136.26-77.6-151.36-105.47,16.29-37.66,84.74-123.92,152.44-134.53.85-.13,1.69-.2,2.54-.32v241.07ZM678.52,799.41c0-6.82,5.52-12.34,12.34-12.34,131.06,0,257.75-16.29,257.75,159.85,0,127.17-71.11,153.68-157.2,158.82h-.54c-22.29,0-75.6.6-99.89.87v.05c-6.87.05-12.45-5.47-12.45-12.34v-294.92ZM678.47,1135.41c0-6.82,5.52-12.34,12.34-12.34h10.55c130.2,0,274.47-16.29,274.47,172.03v.11c0,189.35-174.14,173.06-220.78,173.06h-64.23c-6.82,0-12.34-5.52-12.34-12.34v-320.52ZM843.03,409.52c-41.64,51.97-107.82,85.22-169.59,100.05v-221.81c77.12,28.96,140.82,90.79,169.59,121.77ZM436.85,69.85h129.33v156.26c-6.29.9-12.67,1.97-19.16,3.27-99.03,19.81-171,126.03-192.97,180.63,13.2,23,35.17,55.85,69.27,86.85,58.98,53.68,118.29,69.16,134.64,73,2.78.65,5.49,1.16,8.23,1.71v183.46h-153.79c-48.92,0-205.04-8.17-205.04-342.6S326.19,69.85,436.85,69.85Z"/>
  <polygon class="cls-1" points="125.25 1710.64 224.74 1710.64 224.74 1700.08 146.36 1704.83 146.36 1617.22 210.75 1619.6 210.75 1609.04 146.36 1611.42 146.36 1523.8 224.74 1528.55 224.74 1518 125.25 1518 125.25 1710.64"/>
  <path class="cls-1" d="M254.56,1518h-21.11v192.64h21.11v-71.78c72.05-8.18,97.38-28.5,97.38-64.39s-25.33-56.47-97.38-56.47ZM254.56,1633.32v-110.05c58.06,1.06,76.27,18.48,76.27,51.2s-18.21,50.67-76.27,58.85Z"/>
  <rect class="cls-1" x="360.66" y="1518" width="21.11" height="192.64"/>
  <path class="cls-1" d="M412.38,1518h-21.11v192.64h21.11v-71.78c72.04-8.18,97.38-28.5,97.38-64.39s-25.33-56.47-97.38-56.47ZM412.38,1633.32v-110.05c58.06,1.06,76.27,18.48,76.27,51.2s-18.21,50.67-76.27,58.85Z"/>
  <polygon class="cls-1" points="626.67 1611.68 539.59 1611.68 539.59 1518 518.48 1518 518.48 1710.64 539.59 1710.64 539.59 1616.96 626.67 1616.96 626.67 1710.64 647.78 1710.64 647.78 1518 626.67 1518 626.67 1611.68"/>
  <path class="cls-1" d="M715.08,1518l-62.54,192.64h10.56l22.96-76.8h66.77l24.81,76.8h21.11l-62.55-192.64h-21.11ZM687.38,1628.57l30.35-102.12,33.25,102.12h-63.6Z"/>
  <polygon class="cls-1" points="930.17 1701.14 824.61 1518 803.5 1518 803.5 1710.64 814.05 1710.64 809.04 1527.49 914.6 1710.64 935.71 1710.64 935.71 1518 925.15 1518 930.17 1701.14"/>
  <polygon class="cls-1" points="1076.11 1518 1021.22 1627.78 961.57 1518 940.46 1518 1003.01 1633.05 1003.01 1710.64 1024.12 1710.64 1024.12 1633.05 1086.66 1518 1076.11 1518"/>
</svg>