<svg width="47" height="61" viewBox="0 0 47 61" fill="none" xmlns="http://www.w3.org/2000/svg">
<path d="M24 11C28.2653 11 32.2412 13.5419 35.1943 17.8848C38.1437 22.2223 40 28.2705 40 35C40 41.7295 38.1437 47.7777 35.1943 52.1152C32.2412 56.4581 28.2653 59 24 59C19.7347 59 15.7588 56.4581 12.8057 52.1152C9.85626 47.7777 8 41.7295 8 35C8 28.2705 9.85626 22.2223 12.8057 17.8848C15.7588 13.5419 19.7347 11 24 11Z" stroke="#CC9D68" stroke-width="2"/>
<line x1="24" y1="23" x2="24" y2="45" stroke="#CC9D68" stroke-width="2" stroke-linecap="round"/>
<line x1="1" y1="-1" x2="9.27985" y2="-1" transform="matrix(-0.685891 -0.727704 0.891307 -0.453401 25.0509 45.4807)" stroke="#CC9D68" stroke-width="2" stroke-linecap="round"/>
<line x1="1" y1="-1" x2="7" y2="-1" transform="matrix(-0.685945 0.727653 -0.505226 -0.862987 30.4875 38)" stroke="#CC9D68" stroke-width="2" stroke-linecap="round"/>
<circle cx="24" cy="49" r="0.5" fill="white" stroke="#CC9D68"/>
</svg>
